Coordinates
version=1
nRows=8
nColumns=34
inDegrees=yes

Units are S.I. units (second, meters, Newtons, ...)
If the header above contains a line with 'inDegrees', this indicates whether rotational values are in degrees (yes) or radians (no).

endheader
time	pelvis_tilt	pelvis_list	pelvis_rotation	pelvis_tx	pelvis_ty	pelvis_tz	hip_flexion_r	hip_adduction_r	hip_rotation_r	knee_angle_r	ankle_angle_r	subtalar_angle_r	mtp_angle_r	hip_flexion_l	hip_adduction_l	hip_rotation_l	knee_angle_l	ankle_angle_l	subtalar_angle_l	mtp_angle_l	lumbar_extension	lumbar_bending	lumbar_rotation	arm_flex_r	arm_add_r	arm_rot_r	elbow_flex_r	pro_sup_r	arm_flex_l	arm_add_l	arm_rot_l	elbow_flex_l	pro_sup_l
      2.71666670	      6.80161976	     -4.60239284	    -21.36459552	      3.13359737	      0.98485294	      0.89305861	     19.52569142	      6.75665055	     -4.75475151	     21.64283050	     15.21822422	     10.08435211	      0.00000000	     20.41910648	     12.87089679	      0.70649961	     15.46637126	     -6.63595323	    -11.35185271	      0.00000000	    -14.52765930	     -9.40627062	      2.67065118	      6.16617347	     -2.52506365	     30.76867806	     91.83545954	    119.74817918	     -6.11837361	     -8.27075458	     26.14927643	     98.61377333	    119.74817918
      2.73333330	      6.71556565	     -5.23422454	    -21.36256565	      3.13389244	      0.98543903	      0.89285757	     19.78044938	      7.13138186	     -5.67764636	     22.29221527	     14.31501200	     10.47216944	      0.00000000	     20.49404636	     12.28903668	      1.04700194	     16.02823361	     -6.41949747	    -11.79327836	      0.00000000	    -14.73270384	     -8.78597193	      3.19839064	      6.17597118	     -2.44797471	     30.12073890	     91.34985821	    119.74817918	     -5.72504692	     -8.02731656	     26.57478326	     97.60964183	    119.74817918
      2.75000000	      6.84560796	     -5.75309530	    -21.53522530	      3.13442212	      0.98593747	      0.89240720	     20.00853293	      7.34479821	     -6.22565355	     23.26357431	     13.99281040	     10.54489447	      0.00000000	     20.41304719	     11.89391483	      1.25419740	     16.62489901	     -6.11351571	    -12.15092368	      0.00000000	    -14.99012364	     -8.34611348	      3.64956783	      6.77998167	     -2.85315365	     30.13941531	     90.97466517	    119.74817918	     -5.20241073	     -7.85914635	     27.22804656	     97.10339575	    119.74817918
      2.76666670	      6.87115959	     -6.57990593	    -21.68703336	      3.13487662	      0.98680828	      0.89228649	     20.26687559	      7.82524225	     -6.89999268	     24.28077950	     13.27872393	     11.12710143	      0.00000000	     20.39985096	     11.09919506	      1.44692846	     17.42005939	     -5.94174725	    -12.41369598	      0.00000000	    -15.17431186	     -7.56527901	      4.28415553	      7.17203242	     -3.45520972	     30.41915083	     91.02036062	    119.74817918	     -4.48732364	     -7.65723450	     28.22298735	     96.39677032	    119.74817918
      2.78333330	      7.00314681	     -7.18645844	    -21.84991265	      3.13436344	      0.98765675	      0.89189650	     20.85386271	      8.02593918	     -7.65433016	     25.76554551	     12.02088560	     11.02191423	      0.00000000	     20.25894308	     10.52977826	      1.50345936	     17.84209028	     -5.93377474	    -12.43670103	      0.00000000	    -15.60647298	     -7.01738286	      4.83102939	      7.55849117	     -3.86647306	     30.09275157	     90.80676150	    119.74817918	     -3.90698577	     -7.10690545	     28.41518755	     95.89286867	    119.74817918
      2.80000000	      6.86765063	     -7.95219164	    -21.77135678	      3.13314345	      0.98812153	      0.89088874	     21.66865940	      8.50644078	     -8.16877540	     27.02424037	      9.90100239	     10.21018344	      0.00000000	     20.55876121	      9.78063967	      1.78643617	     18.60554233	     -6.20681964	    -12.43184375	      0.00000000	    -16.00485390	     -6.09897193	      5.38518226	      7.75689881	     -4.23207574	     29.47105785	     90.92128929	    119.74817918	     -3.09810479	     -6.25836595	     28.64411469	     94.94355437	    119.74817918
      2.81666670	      7.26932966	     -8.30114076	    -21.96291611	      3.13220986	      0.98932321	      0.89101977	     22.24362026	      8.45200523	     -8.61376046	     28.82148854	      8.09764722	      9.81655716	      0.00000000	     20.47786663	      9.53468356	      1.83758231	     19.36626007	     -6.25480090	    -12.68948891	      0.00000000	    -16.72997062	     -6.06158313	      5.65733882	      8.43559990	     -4.16781823	     29.33337363	     90.63993507	    119.74817918	     -2.50291761	     -5.91615340	     28.61459871	     94.40725378	    119.74817918
      2.83333330	      7.03751390	     -9.05815379	    -21.99956316	      3.13177661	      0.98985098	      0.89125938	     23.02563895	      9.34962031	     -8.36308845	     29.83829627	      5.16975732	      6.85021186	      0.00000000	     20.84696069	      8.76495979	      2.37870946	     20.25684814	     -6.51067747	    -13.56717655	      0.00000000	    -16.81805323	     -5.28121707	      6.03468764	      8.75903555	     -4.44117683	     29.60494581	     91.02541285	    119.74817918	     -1.70349304	     -5.67262908	     29.37167604	     93.23639495	    119.74817918
